<?xml version="1.0" standalone="no"?>
<!DOCTYPE svg PUBLIC "-//W3C//DTD SVG 20010904//EN"
 "http://www.w3.org/TR/2001/REC-SVG-20010904/DTD/svg10.dtd">
<svg version="1.0" xmlns="http://www.w3.org/2000/svg"
 width="927.000000pt" height="720.000000pt" viewBox="0 0 927.000000 720.000000"
 preserveAspectRatio="xMidYMid meet">
<metadata>
Created by potrace 1.13, written by Peter Selinger 2001-2015
</metadata>
<g transform="translate(0.000000,720.000000) scale(0.100000,-0.100000)"
fill="#000000" stroke="none">
<path stroke="#F2E2D2" fill="#F2E2D2" d="M0 3600 l0 -3600 4635 0 4635 0 0 3600 0 3600 -4635 0 -4635 0 0
-3600z m8340 0 l0 -2650 -3705 0 -3705 0 0 2650 0 2650 3705 0 3705 0 0 -2650z"/>
<path stroke="yellow" fill="yellow" d="M2670 5579 c-93 -10 -144 -25 -235 -69 -143 -70 -251 -176 -321 -320
-171 -347 -27 -768 321 -940 103 -51 186 -70 306 -70 116 0 221 25 328 77 99
49 231 177 287 278 153 276 109 612 -109 834 -153 157 -365 234 -577 210z"/>
<path stroke="#0033cc" fill="#0033cc" d="M4995 4005 c-308 -437 -562 -795 -565 -795 -3 0 -140 131 -305 290
l-299 291 -42 -43 c-24 -24 -419 -437 -878 -918 l-836 -875 2697 -3 c1483 -1
2698 0 2700 2 4 3 -1882 2811 -1906 2838 -3 4 -258 -350 -566 -787z"/>
</g>
</svg>
